PathFileType	4	(X/Y/Z)	_05Apr_ss_11ms_01.trc
DataRate	CameraRate	NumFrames	NumMarkers	Units	OrigDataRate	OrigDataStartFrame	OrigNumFrames
200.000000	200.000000	6	42	mm	200.000000	5728	6114
Frame#	Time	LASI			RASI			LPSI			RPSI			LTH1			LTH2			LTH3			LTH4			LMFC			LLFC			LTB1			LTB2			LTB3			LTB4			LMMAL			LLMAL			LCAL			LToe			LMT1			LMT5			RTH1			RTH2			RTH3			RTH4			RMFC			RLFC			RTB1			RTB2			RTB3			RTB4			RMMAL			RLMAL			RCAL			RToe			RMT1			RMT5			C7			T10			LACR1			RACR1			CLAV			RBack			
		X1	Y1	Z1	X2	Y2	Z2	X3	Y3	Z3	X4	Y4	Z4	X5	Y5	Z5	X6	Y6	Z6	X7	Y7	Z7	X8	Y8	Z8	X9	Y9	Z9	X10	Y10	Z10	X11	Y11	Z11	X12	Y12	Z12	X13	Y13	Z13	X14	Y14	Z14	X15	Y15	Z15	X16	Y16	Z16	X17	Y17	Z17	X18	Y18	Z18	X19	Y19	Z19	X20	Y20	Z20	X21	Y21	Z21	X22	Y22	Z22	X23	Y23	Z23	X24	Y24	Z24	X25	Y25	Z25	X26	Y26	Z26	X27	Y27	Z27	X28	Y28	Z28	X29	Y29	Z29	X30	Y30	Z30	X31	Y31	Z31	X32	Y32	Z32	X33	Y33	Z33	X34	Y34	Z34	X35	Y35	Z35	X36	Y36	Z36	X37	Y37	Z37	X38	Y38	Z38	X39	Y39	Z39	X40	Y40	Z40	X41	Y41	Z41	X42	Y42	Z42	

5728	28.63	345.42230	984.55341	-842.28015	591.96045	979.53809	-841.69739	425.04938	1001.59070	-662.57770	516.46893	996.06952	-659.76489	298.54355	800.59106	-875.63379	344.30655	818.85181	-914.63043	322.71524	774.28009	-916.40045	312.05154	721.10242	-920.90369	451.37857	505.11737	-907.66364	330.20819	517.66461	-905.59802	317.57126	381.56943	-864.23834	326.74792	342.25763	-892.65808	347.05899	294.08008	-908.60925	330.57217	383.52161	-924.32434	464.13489	108.42622	-892.04034	377.65161	85.68330	-864.72400	436.46677	48.10452	-795.18463	427.77847	52.67987	-1070.61880	459.30814	36.66740	-1008.60910	347.33542	40.27487	-979.58295	644.01617	810.98523	-823.35193	654.68561	764.19061	-799.04077	655.42419	728.39478	-765.86652	651.53345	722.05518	-827.81158	518.35394	472.12387	-808.05530	641.23871	483.21640	-783.00427	621.45612	299.50064	-606.39459	632.62213	352.98715	-567.77631	627.66876	305.67068	-554.81360	614.39246	259.53101	-526.58710	534.61493	223.95918	-481.65747	614.97498	241.63948	-445.24258	545.97614	281.44916	-387.71786	579.33087	48.70351	-510.46091	537.50287	87.73828	-469.39871	641.24945	111.05140	-436.30978	468.79382	1481.70360	-724.57080	480.93008	1222.08650	-622.93176	289.38605	1440.64220	-761.15570	637.73584	1420.88570	-807.74036	458.66183	1383.59450	-852.03864	604.82178	1359.62020	-667.30676
5729	28.635	345.08670	985.49988	-842.39276	591.53912	980.56946	-841.06470	424.44876	1002.73370	-662.32617	515.53259	996.97876	-660.56085	298.30777	800.75244	-874.72504	344.33502	818.76678	-913.68958	322.56024	774.08386	-915.22113	311.89645	721.01617	-919.31787	451.25693	505.02658	-905.26013	330.00403	517.53815	-901.97821	317.08392	381.52289	-859.91138	327.55359	342.16507	-888.85114	347.09628	293.84964	-904.15399	330.50525	383.12012	-920.20697	464.19901	108.38851	-886.45398	377.72015	85.67538	-859.15393	436.38580	48.20266	-789.55139	427.75906	52.47040	-1065.13850	459.21979	36.60500	-1002.92720	347.30606	40.25483	-973.96857	643.85974	812.46674	-824.22992	654.45697	765.32898	-800.41187	654.94397	729.29016	-766.97217	651.73871	723.52588	-829.64349	517.40918	473.77301	-813.14032	641.34430	484.75809	-788.94891	621.31573	302.25253	-611.51672	632.01758	356.11713	-573.15295	627.28198	308.68445	-560.06104	614.04431	262.83951	-531.39252	534.07245	227.28183	-486.97635	614.15295	245.82326	-449.89124	543.81744	283.83713	-392.44788	581.93896	51.75200	-516.87421	539.36395	90.49456	-475.83298	642.39490	115.66020	-442.14166	468.13989	1482.68710	-724.58435	479.91202	1223.08780	-622.90240	288.82269	1441.60250	-761.95172	637.47437	1421.85580	-806.98676	458.50671	1384.53880	-852.00110	603.77124	1360.57080	-666.59320
5730	28.64	344.68777	986.44452	-842.46545	591.13843	981.63184	-840.50360	423.85187	1003.79440	-662.59912	514.94769	997.82330	-660.54437	298.13171	800.85022	-873.71619	344.34781	818.58972	-912.64154	322.42944	773.93982	-914.06873	311.70313	720.75665	-917.78046	451.28714	504.77261	-902.72211	329.85498	517.32593	-898.42169	316.90945	381.49359	-855.93561	327.00049	342.04544	-884.46722	347.08917	293.68259	-899.80188	330.63025	382.87692	-916.33832	464.23346	108.37466	-881.01355	377.73575	85.75315	-853.63397	436.22778	48.24842	-783.97296	427.64056	52.17742	-1059.57400	459.20499	36.67955	-997.38135	347.25296	40.17264	-968.30652	643.62933	814.00153	-825.19348	654.19568	766.62726	-801.90149	654.04645	730.06091	-770.58643	652.21484	725.32581	-831.86487	517.22040	475.35623	-818.45123	641.50061	486.44339	-794.78082	621.18658	305.07840	-616.84216	631.28271	358.98334	-578.62915	626.77295	311.83231	-565.23828	613.65411	265.85822	-536.51550	533.64124	230.02924	-492.68848	613.35065	249.61900	-454.92227	542.00415	285.67709	-397.29391	584.39093	54.78129	-523.84552	541.05536	93.02867	-482.63214	643.67609	119.87118	-448.74683	467.46445	1483.66380	-724.57806	478.95157	1224.04110	-622.88654	288.34174	1442.52820	-762.72839	637.22302	1422.76760	-806.26190	458.32639	1385.45670	-851.96155	602.81470	1361.51260	-665.92346
5731	28.645	344.38101	987.34497	-842.48242	590.85980	982.95404	-840.13354	423.36652	1004.69150	-662.78967	514.35345	998.85632	-660.52222	298.00507	801.05054	-872.65906	344.43378	818.35266	-911.56360	322.30527	773.78888	-912.90118	311.40887	720.60083	-916.04724	451.00845	504.70978	-899.66858	329.74814	517.16394	-894.97351	316.66522	381.31931	-851.99573	326.95563	341.95828	-880.24817	347.06631	293.48416	-895.32953	330.75543	382.69775	-912.38971	464.32999	108.35259	-875.48157	377.79544	85.77908	-848.10376	436.15784	47.97442	-778.55829	427.67734	52.00181	-1054.10100	459.47849	36.93224	-991.86792	347.24466	40.21861	-962.74664	643.57574	815.78180	-826.20428	654.03760	767.92578	-803.39978	653.51990	731.21967	-772.83234	652.38837	726.97998	-833.99438	515.56000	476.88260	-822.30206	641.64063	488.40405	-800.44702	620.80945	307.39020	-622.32678	630.42303	361.88434	-584.20770	626.23621	314.53528	-570.75232	613.18817	268.61551	-541.97308	533.03827	232.51988	-498.58005	612.63251	252.98769	-460.28348	540.41254	287.06021	-402.42941	586.47607	57.61172	-531.11157	542.67993	95.26893	-489.75397	644.95752	123.64916	-455.78894	466.81979	1484.71670	-724.53442	477.99353	1225.11760	-622.78308	287.87582	1443.54220	-763.42139	637.00916	1423.78320	-805.47974	458.23346	1386.38510	-851.84650	601.82745	1362.55000	-665.12982
5732	28.65	343.99625	988.18988	-842.36035	590.51410	984.24408	-839.83118	422.78470	1005.72140	-662.80145	513.87775	999.91455	-660.45428	297.83063	801.15332	-871.49219	344.25235	818.09088	-910.54205	322.15857	773.54681	-911.59729	311.36179	720.27704	-914.21332	450.64828	504.08490	-896.08014	329.67520	517.01599	-891.42529	316.53500	381.35236	-848.20227	326.92242	341.90778	-876.09314	346.99854	293.36078	-890.94958	330.73563	382.52719	-908.38373	464.36832	108.36436	-870.00793	377.87448	85.82613	-842.65472	436.11032	48.04922	-772.95459	427.68945	51.85929	-1048.58630	459.24673	36.66665	-986.21753	347.26306	40.17897	-957.17072	643.30884	817.72351	-828.08148	653.93054	769.44092	-804.87421	653.09369	732.04865	-774.53375	652.47620	728.75989	-835.93121	516.55011	478.30597	-828.23560	641.73981	490.38058	-805.94598	620.50958	309.87222	-627.87909	629.41431	364.46878	-589.88000	625.55676	317.13489	-576.38495	612.69684	271.07709	-547.72766	532.20862	234.35336	-504.67355	611.69214	255.71933	-466.04166	539.06909	288.26715	-407.92496	588.56903	60.43474	-538.68915	544.08936	96.93351	-496.74802	646.24744	127.10315	-463.15594	466.16830	1485.72990	-724.47528	477.03638	1225.86250	-623.77417	287.48224	1444.52220	-764.13354	636.84753	1424.75670	-804.68396	458.14749	1387.32970	-851.75104	600.85925	1363.57470	-664.44916
5733	28.655	343.69037	989.09503	-842.26196	590.22955	985.60040	-839.45331	422.29651	1006.68950	-662.66663	513.30878	1001.02270	-660.28168	297.54034	801.27625	-870.53577	343.93152	817.83167	-909.56012	321.91519	773.24762	-910.15973	311.21564	720.00250	-912.36853	450.35251	503.92627	-892.53137	329.55072	516.92297	-887.90643	316.48306	381.45975	-844.48846	326.83224	341.83893	-871.69543	346.89365	293.25647	-886.47113	330.68420	382.35699	-904.43768	464.44205	108.43117	-864.42822	377.94168	85.87872	-837.24011	436.08249	48.05846	-767.36743	427.69669	51.80496	-1043.17870	459.31213	36.56873	-980.62561	347.18268	40.15382	-951.57330	643.46265	819.65460	-828.84277	653.64233	770.90228	-807.06927	652.78046	733.32104	-776.54065	652.41718	730.89417	-837.79639	517.33582	480.20938	-834.04608	641.84247	492.58218	-811.30817	620.45740	312.21863	-633.80878	628.45575	366.80643	-595.49915	624.95978	319.42926	-582.05414	612.14429	273.18185	-553.74158	531.51447	236.05063	-510.92822	610.77826	258.08734	-472.21753	537.89648	289.04358	-413.66534	590.09796	62.96382	-546.39697	545.64691	98.71272	-504.27670	647.28552	130.21002	-470.73853	465.65411	1486.71640	-724.41217	476.05499	1227.23950	-622.47192	287.08121	1445.51780	-764.83691	636.63434	1425.66170	-803.88995	458.17117	1388.29280	-851.64160	599.90784	1364.58470	-663.70660
